<svg width="22" height="23" viewBox="0 0 22 23" fill="none" xmlns="http://www.w3.org/2000/svg">
<path d="M10.4273 7.12806L10.8864 2.34527L11.3597 7.26472L11.3704 7.24422C11.7352 6.53534 12.189 5.70689 12.6338 4.88869C12.8331 4.52486 13.0288 4.16615 13.2086 3.83136C12.7068 2.37431 11.7672 1.03513 10.8828 0C9.77779 1.26402 9.00908 2.50413 8.58557 3.71008C8.78309 4.07904 9.00196 4.47874 9.22439 4.88698C9.64434 5.65906 10.0732 6.44481 10.4273 7.12806Z" fill="white"/>
<path d="M6.33126 9.1166C6.31574 8.94617 6.29678 8.78426 6.28816 8.6053C6.27954 8.42635 6.26921 8.26444 6.2761 8.094V7.83324C6.2761 7.74632 6.28817 7.6628 6.29334 7.57588C6.29851 7.48896 6.3054 7.40545 6.31402 7.32194C6.32264 7.23843 6.33815 7.15151 6.34849 7.07822C6.35883 7.00494 6.37091 6.91972 6.3847 6.84302C6.39849 6.76633 6.41746 6.69304 6.43298 6.61976C6.45988 6.48389 6.49441 6.34961 6.5364 6.21753C6.57432 6.09482 6.60707 5.98233 6.63982 5.87666L6.7398 5.62783L6.82599 5.4165C6.82599 5.43525 6.80875 5.51364 6.78462 5.63977L6.73464 5.89882C6.72085 6.00108 6.71049 6.11527 6.69843 6.23969C6.6827 6.37262 6.67521 6.50637 6.67602 6.64021C6.67602 6.71179 6.67602 6.78337 6.67602 6.85836C6.67602 6.93335 6.67603 7.00834 6.68809 7.08674C6.70016 7.16514 6.68809 7.24013 6.70015 7.32023C6.71222 7.40034 6.71912 7.47874 6.72774 7.55884C6.73636 7.63894 6.74496 7.71905 6.75876 7.79915L6.80185 8.03946C6.82771 8.19967 6.87082 8.35817 6.90702 8.51327C6.94322 8.66836 6.99491 8.81834 7.03801 8.96321C7.0811 9.10808 7.12939 9.24613 7.18282 9.37566C7.23626 9.50519 7.28108 9.6262 7.33107 9.73527C7.42588 9.95513 7.51723 10.1324 7.58101 10.2466C7.61376 10.3079 7.63963 10.3522 7.65514 10.3778C7.67066 10.4034 7.72582 10.4818 7.78615 10.567C7.98267 10.2006 8.19641 9.84605 8.42223 9.5086C8.49463 9.40122 8.56876 9.29385 8.6446 9.18989C8.72045 9.08592 8.79629 8.98196 8.87214 8.88311C9.18022 8.48038 9.52656 8.10771 9.90641 7.77018C9.5289 6.98278 8.96177 5.91587 8.44119 4.93247L8.18089 4.43821C8.09298 4.26777 8.00851 4.11439 7.92577 3.95759C7.84303 3.80079 7.76546 3.6491 7.68789 3.50253C7.51551 3.18212 7.37415 2.89068 7.25521 2.64185C6.27782 3.66444 4.88328 6.10334 4.62299 7.42931C5.28837 8.11105 5.86297 8.70813 6.34679 9.22056L6.33126 9.1166Z" fill="white"/>
<path d="M4.93159 13.5481C4.7901 13.0508 4.63054 12.4159 4.49959 11.7761C4.42734 11.4296 4.36412 11.0815 4.31294 10.7533C4.28584 10.5875 4.26327 10.4317 4.2437 10.2809C4.22413 10.13 4.20457 9.98913 4.19102 9.85652C4.16092 9.59462 4.14285 9.37415 4.13232 9.22165C4.12178 9.06915 4.11275 8.97964 4.11275 8.97964C4.11275 8.97964 4.13382 9.06584 4.17145 9.21337C4.20908 9.3609 4.26025 9.57307 4.33251 9.82337C4.36562 9.94935 4.40627 10.0836 4.45143 10.2262C4.49658 10.3687 4.54174 10.5179 4.60195 10.6704C4.70431 10.9771 4.82022 11.3003 4.94515 11.6202C5.19201 12.2601 5.46898 12.8817 5.69778 13.3376C5.80766 13.5663 5.90399 13.752 5.97022 13.8813C6.01086 13.9575 6.12074 14.1747 6.19902 14.3338C6.29234 14.3984 6.38416 14.4631 6.47447 14.5294C6.48051 14.275 6.50214 14.0214 6.5392 13.7702C6.55727 13.6376 6.58134 13.5033 6.60844 13.3657C6.63553 13.2282 6.66113 13.1038 6.69274 12.9712C6.8392 12.3708 7.03051 11.7848 7.26472 11.2191C6.92303 10.7798 6.21858 9.93278 4.8187 8.32984L4.50109 7.96517L4.20004 7.62204L3.2969 6.60425C2.80769 8.02981 2.44042 11.2622 2.76405 12.4574C3.46399 12.7806 4.188 13.1254 4.93159 13.5481Z" fill="white"/>
<path d="M12.7344 8.63004C12.8024 8.72496 12.8688 8.82315 12.9337 8.92298C12.9986 9.02281 13.0635 9.12592 13.1284 9.22902C13.2592 9.44723 13.387 9.67308 13.5117 9.90656C13.5676 9.79364 13.64 9.63489 13.717 9.44178C13.7593 9.33704 13.803 9.22084 13.8453 9.09646C13.8876 8.97208 13.9283 8.83789 13.9736 8.70041C14.0189 8.56294 14.0536 8.41729 14.0868 8.26836C14.12 8.11943 14.1577 7.96723 14.1788 7.81339L14.2181 7.58264C14.2286 7.50572 14.2362 7.4288 14.2453 7.35189C14.2543 7.27497 14.2634 7.19804 14.2694 7.12276C14.2754 7.04748 14.2694 6.9722 14.28 6.89855C14.2905 6.82491 14.289 6.75126 14.289 6.67925C14.289 6.60725 14.289 6.53851 14.289 6.46977C14.2909 6.34128 14.2849 6.21279 14.2709 6.08518C14.2588 5.96571 14.2498 5.85606 14.2392 5.75787L14.1954 5.50911L14.1577 5.29472C14.1577 5.31109 14.1909 5.38146 14.2332 5.49765L14.3222 5.73659C14.3509 5.82988 14.3796 5.93789 14.4128 6.0639C14.4497 6.19055 14.4795 6.31954 14.5018 6.45014C14.5154 6.52051 14.5305 6.59088 14.5456 6.66453C14.5607 6.73817 14.5652 6.81345 14.5758 6.89037C14.5864 6.96729 14.5969 7.05403 14.606 7.1244C14.615 7.19477 14.6181 7.28806 14.6241 7.36825C14.6301 7.44844 14.6377 7.53191 14.6407 7.61537V7.86576C14.6407 8.02942 14.6407 8.19308 14.6301 8.35673C14.6196 8.52039 14.606 8.68405 14.5924 8.8477C14.5788 9.01136 14.5577 9.15702 14.532 9.2994L14.5184 9.38941C14.5788 9.3174 14.6422 9.24375 14.7086 9.16847C15.1946 8.60549 15.7953 7.92359 16.5107 7.12276C16.233 5.82824 15.0588 3.60087 14.2287 2.64185C14.1124 2.90697 13.9645 3.22774 13.7985 3.57796L13.5857 4.0182C13.5132 4.1704 13.4348 4.32587 13.3608 4.48462L13.1903 4.84139C12.7239 5.80533 12.2183 6.85273 11.8877 7.61373C12.1967 7.92513 12.48 8.26519 12.7344 8.63004Z" fill="white"/>
<path d="M14.5561 13.426C14.5926 13.5682 14.6238 13.7068 14.6516 13.8437C14.6793 13.9806 14.7071 14.135 14.7262 14.2755C14.7687 14.5554 14.7907 14.8381 14.7921 15.1214C14.7921 15.1442 14.7921 15.167 14.7921 15.1898C14.8754 15.1302 14.9604 15.0716 15.0472 15.0143C15.1929 14.7581 15.3942 14.4001 15.4428 14.3123C15.5209 14.1754 15.6302 13.9789 15.7569 13.7367C16.0119 13.254 16.3329 12.5959 16.6244 11.9185C16.7685 11.5797 16.9021 11.2375 17.0201 10.9128C17.0808 10.7514 17.1346 10.5917 17.1849 10.4425C17.2352 10.2933 17.2838 10.1494 17.322 10.016C17.407 9.751 17.4677 9.52812 17.5077 9.37017C17.5476 9.21221 17.5753 9.12271 17.5753 9.12271C17.5753 9.12271 17.5753 9.21572 17.5528 9.37894C17.5302 9.54216 17.5198 9.77382 17.4851 10.0511C17.4695 10.1915 17.4487 10.3407 17.4244 10.5004C17.4001 10.6601 17.3758 10.8286 17.3445 11.0006C17.2855 11.3516 17.2127 11.7166 17.1294 12.0834C16.9663 12.817 16.7633 13.5454 16.5915 14.0877C17.3949 13.6542 18.1826 13.2979 18.9548 12.9697C18.9548 12.9539 18.9687 12.9381 18.9739 12.9223C19.4129 11.764 18.9739 8.16622 18.3978 6.60425L17.4938 7.54494L17.1624 7.89595L16.8014 8.27503C15.1374 10.0195 14.2872 10.955 13.869 11.4481C14.1559 12.0854 14.3858 12.7473 14.5561 13.426Z" fill="white"/>
<path d="M11.3911 19.1526C11.4667 19.0114 11.5477 18.8685 11.6358 18.7238C11.724 18.5791 11.8374 18.4027 11.9526 18.2403C12.6553 17.2526 13.5093 16.3771 14.4845 15.6448C14.5144 15.4379 14.5295 15.2292 14.5295 15.0202C14.5295 14.9355 14.5295 14.8438 14.5295 14.7626C14.5223 14.6191 14.5079 14.4726 14.4863 14.3232C14.4665 14.1874 14.4431 14.0462 14.4125 13.9033C14.2715 13.2432 14.0641 12.5984 13.7935 11.9783C13.7395 11.8512 13.6819 11.7224 13.6135 11.5954C13.5451 11.4683 13.4984 11.3484 13.4336 11.2266C13.2391 10.8359 13.0228 10.4559 12.7857 10.0885C12.7174 9.97913 12.6454 9.8715 12.5734 9.76563C12.5014 9.65976 12.4258 9.55566 12.3521 9.45509C12.0826 9.07833 11.7816 8.72421 11.4523 8.39641C11.3569 8.30289 11.2615 8.21996 11.1662 8.13526L11.0942 8.07527C11.0294 8.02234 10.9664 7.97293 10.9016 7.92529L10.8369 7.9747C10.7919 8.00822 10.7469 8.04351 10.7001 8.08233C10.6047 8.16173 10.5075 8.24642 10.4122 8.33641C10.0567 8.67828 9.73274 9.05027 9.44403 9.44803C9.36844 9.5486 9.29465 9.6527 9.22266 9.75857C9.15068 9.86444 9.07871 9.97031 9.00853 10.0797C8.76332 10.4656 8.53868 10.8638 8.33551 11.2725C8.27432 11.3901 8.21434 11.5136 8.15555 11.643C8.09617 11.7718 8.03857 11.9006 7.98458 12.0294C7.73501 12.6118 7.54045 13.2155 7.40334 13.8327C7.37215 13.9762 7.34697 14.1156 7.32777 14.2509C7.30407 14.3959 7.28785 14.5419 7.27918 14.6885C7.26838 14.7996 7.26477 14.9073 7.26477 15.0131C7.26477 15.119 7.26479 15.2761 7.28278 15.4102C8.23216 16.0867 9.08018 16.8902 9.80213 17.7975C9.9245 17.9527 10.0379 18.108 10.144 18.2633C10.2502 18.4186 10.324 18.5438 10.4176 18.6815L10.5345 17.1623L10.6461 15.7048L10.7325 14.5632L10.7487 14.5156C10.7432 14.5063 10.7396 14.4961 10.7379 14.4856L10.8225 13.3863L10.898 12.4123L10.9916 13.6827L11.0294 14.1909L11.069 14.7202L11.1248 15.479L11.2219 16.7988V16.797L11.3911 19.1526Z" fill="white"/>
<path d="M9.58036 18.5561C9.48083 18.4093 9.37433 18.2591 9.25735 18.1089C8.73694 17.4425 8.13614 16.8386 7.46769 16.3098C7.32452 16.1951 7.17262 16.0786 7.01548 15.9723C6.85834 15.866 6.74485 15.7749 6.60168 15.677C6.36887 15.515 6.11744 15.3535 5.84739 15.1926C5.09504 14.7404 4.31356 14.3351 3.50773 13.9792C3.21789 13.8493 2.93156 13.7278 2.64521 13.6096C2.48109 13.5404 2.31522 13.4746 2.1511 13.4088C1.98697 13.343 1.83855 13.2839 1.68316 13.2232L1.24665 13.0544C0.820627 12.8856 0.408566 12.7169 0 12.5481C0.283311 13.2899 0.516601 14.0487 0.698404 14.8197C0.991734 15.9537 1.29553 17.1283 2.04457 18.546C3.31741 20.9508 5.58199 22.2807 8.65846 22.4545C7.66232 21.987 6.72498 21.4106 5.86484 20.7365C5.5977 20.5272 5.34104 20.3045 5.10358 20.08C4.98136 19.9669 4.86787 19.8488 4.75438 19.7425L4.42788 19.3932L4.12932 19.0421L3.86043 18.6945C3.68583 18.4633 3.54092 18.2422 3.41346 18.0295C3.286 17.8169 3.17949 17.6178 3.08171 17.4439C2.98394 17.2701 2.91758 17.1064 2.85997 16.9781C2.77267 16.7638 2.71331 16.6237 2.69585 16.5782C2.7203 16.622 2.79187 16.7469 2.90012 16.9579C2.97171 17.0828 3.06425 17.2296 3.16727 17.3984C3.27028 17.5671 3.39948 17.7511 3.55313 17.9418C3.70678 18.1325 3.86915 18.3384 4.05423 18.546L4.34932 18.8582L4.67233 19.1687L5.02153 19.4742C5.14375 19.572 5.26422 19.675 5.39168 19.7712C5.6466 19.9653 5.91549 20.1543 6.18438 20.3281C7.18711 20.9666 8.27105 21.4772 9.40925 21.847C9.81956 21.982 10.174 22.0782 10.4394 22.144C10.4278 21.9715 10.4278 21.7984 10.4394 21.6259C10.4394 21.501 10.4569 21.3694 10.4761 21.2293C10.4918 21.1061 10.5127 20.9778 10.5407 20.8428C10.5407 20.804 10.5564 20.7635 10.5669 20.723C10.4172 20.1262 10.1821 19.5525 9.86845 19.0185C9.77766 18.861 9.68163 18.7068 9.58036 18.5561Z" fill="white"/>
<path d="M20.554 13.0518C20.2802 13.1614 20.0029 13.2692 19.7256 13.3888C19.5688 13.4528 19.4104 13.5168 19.2519 13.5842C19.0934 13.6516 18.9178 13.7241 18.749 13.7982C17.8042 14.1985 16.8906 14.6658 16.0155 15.1965C15.6383 15.4274 15.2904 15.6615 14.9683 15.8957C14.8185 16.0036 14.6755 16.1131 14.5377 16.2226C14.3655 16.3557 14.2088 16.4888 14.0572 16.6235C13.5769 17.0419 13.1365 17.502 12.7413 17.9983C12.6224 18.1499 12.5122 18.2982 12.4106 18.4465C12.309 18.5947 12.2159 18.7379 12.1298 18.8811C11.8038 19.4189 11.5557 19.9984 11.3926 20.603L11.3513 20.64C11.3513 20.6636 11.3616 20.6855 11.3651 20.7074C11.3272 20.8624 11.2979 21.0073 11.2773 21.1455C11.2514 21.3139 11.2359 21.4673 11.2273 21.6071C11.2273 21.679 11.2273 21.748 11.2273 21.8143C11.2273 21.9154 11.2273 22.0064 11.2393 22.0872L11.4977 22.0182C11.6803 21.9659 11.8835 21.9036 12.104 21.8312C13.2266 21.4616 14.2959 20.952 15.2852 20.3149C15.5556 20.1464 15.8157 19.9526 16.0672 19.7589C16.1929 19.6629 16.3118 19.5601 16.4324 19.4624L16.7768 19.1574L17.0955 18.8474L17.3883 18.5358C17.5691 18.3285 17.7328 18.1264 17.8826 17.9326C18.0325 17.7389 18.1496 17.5519 18.2633 17.3901C18.3769 17.2284 18.4562 17.0751 18.5251 16.9504C18.6318 16.7465 18.6973 16.6134 18.7266 16.5713C18.7094 16.6168 18.6525 16.7566 18.5664 16.9706C18.5096 17.102 18.432 17.2553 18.3476 17.4356C18.2633 17.6159 18.153 17.813 18.0204 18.0202C17.8878 18.2274 17.7431 18.4532 17.5795 18.684L17.3142 19.0311L17.0197 19.3815L16.6976 19.7303C16.5839 19.8431 16.472 19.9611 16.3531 20.0672C16.1137 20.2913 15.864 20.5137 15.6022 20.7226C14.7438 21.4036 13.8074 21.9848 12.8119 22.4545C16.0689 22.3888 18.4613 21.0511 19.7772 18.5358C20.5161 17.1206 20.8107 15.948 21.1052 14.8158C21.2845 14.0461 21.5147 13.2886 21.7942 12.5481C21.3808 12.7216 20.9795 12.8834 20.554 13.0518Z" fill="white"/>
</svg>
